# xmcd
#
# Track frame offsets: 
#        150
#        22176
#        41763
#        62843
#        85688
#
# Disc length: 1529 seconds
#
# Revision: 0
# Processed by: cddbd v1.5.2PL0 Copyright (c) Steve Scherf et al.
# Submitted via: ExactAudioCopy v1.0b4
#
DISCID=3c05f705
DTITLE=Warren Haynes - Ashes and Dust [disc 2]
DYEAR=2015
DGENRE=Blues Rock
TTITLE0=New Year's Eve (Demo)
TTITLE1=Company Man (Demo)
TTITLE2=Glory Road (Demo)
TTITLE3=Wanderlust (Demo)
TTITLE4=Hallelujah Boulevard (Live From Angel Orensanz Foundation - 20
TTITLE4=08)
EXTD=
EXTT0=
EXTT1=
EXTT2=
EXTT3=
EXTT4=
PLAYORDER=
